<svg xmlns="http://www.w3.org/2000/svg" version="1.1" xmlns:xlink="http://www.w3.org/1999/xlink" viewBox="0 0 200 200" width="200" height="200"><metadata><rdf:RDF xmlns:rdf="http://www.w3.org/1999/02/22-rdf-syntax-ns#" xmlns:dc="http://purl.org/dc/elements/1.1/"><rdf:Description><dc:creator>RealFaviconGenerator</dc:creator><dc:source>https://realfavicongenerator.net</dc:source></rdf:Description></rdf:RDF></metadata><rect width="200" height="200" fill="url('#gradient')"></rect><defs><linearGradient id="gradient" gradientTransform="rotate(204 0.5 0.5)"><stop offset="0%" stop-color="#0a0a0f"></stop><stop offset="100%" stop-color="#a855f7"></stop></linearGradient></defs><g><g fill="#ffffff" transform="matrix(2.892954349698536,0,0,2.892954349698536,14.899803691616754,120.55881478808237)" stroke="#ffffff" stroke-width="0.8"><path d="M8.94 0L5.91-5.29L4.50-3.75L4.50 0L1.07 0L1.07-14.22L4.50-14.22L4.50-7.95L5.69-9.76L8.76-14.22L13.00-14.22L8.19-7.93L13.00 0L8.94 0ZM25.74-14.22L25.74 0L22.33 0L17.29-8.85L17.29 0L13.87 0L13.87-14.22L17.29-14.22L22.32-5.37L22.32-14.22L25.74-14.22ZM39.95-7.47L39.95-6.82Q39.95-4.74 39.18-3.13Q38.41-1.53 36.99-0.67Q35.57 0.20 33.75 0.20Q31.93 0.20 30.53-0.64Q29.12-1.47 28.33-3.03Q27.55-4.58 27.51-6.59L27.51-6.59L27.51-7.39Q27.51-9.48 28.28-11.08Q29.04-12.68 30.47-13.54Q31.90-14.41 33.73-14.41L33.73-14.41Q35.54-14.41 36.95-13.55Q38.37-12.70 39.16-11.11Q39.94-9.52 39.95-7.47L39.95-7.47ZM36.46-6.76L36.46-7.41Q36.46-9.53 35.76-10.63Q35.05-11.73 33.73-11.73L33.73-11.73Q31.15-11.73 31.01-7.86L31.01-7.86L31.00-6.82Q31.00-4.73 31.69-3.60Q32.38-2.48 33.75-2.48L33.75-2.48Q35.05-2.48 35.75-3.58Q36.46-4.69 36.46-6.76L36.46-6.76ZM50.75-14.22L52.73-5.30L54.37-14.22L57.76-14.22L54.75 0L51.19 0L49.29-8.11L47.42 0L43.88 0L40.85-14.22L44.26-14.22L45.89-5.30L47.84-14.22L50.75-14.22Z"></path></g></g></svg>